<svg xmlns="http://www.w3.org/2000/svg" viewBox="0 0 512 512"><defs><radialGradient id="sph" cx="0.34" cy="0.30" r="0.78"><stop offset="0" stop-color="#ffffff"/><stop offset="0.5" stop-color="#d4dbe2"/><stop offset="1" stop-color="#767e87"/></radialGradient></defs><defs><radialGradient id="bgr" cx="0.5" cy="0.42" r="0.75"><stop offset="0" stop-color="#1d2733"/><stop offset="1" stop-color="#0a0d12"/></radialGradient></defs><rect width="512" height="512" rx="96" fill="url(#bgr)"/><ellipse cx="256" cy="161.7" rx="8.3" ry="3.7" fill="#000" fill-opacity="0.4"/><circle cx="256" cy="140.0" r="9.8" fill="url(#sph)"/><ellipse cx="286" cy="180.7" rx="8.9" ry="4.0" fill="#000" fill-opacity="0.4"/><circle cx="286" cy="158.0" r="10.5" fill="url(#sph)"/><circle cx="226" cy="166.0" r="9.8" fill="#222a32"/><ellipse cx="316" cy="199.7" rx="9.6" ry="4.3" fill="#000" fill-opacity="0.4"/><circle cx="316" cy="176.0" r="11.2" fill="url(#sph)"/><circle cx="256" cy="184.0" r="9.8" fill="#222a32"/><circle cx="196" cy="184.0" r="9.8" fill="#222a32"/><ellipse cx="346" cy="218.8" rx="10.2" ry="4.5" fill="#000" fill-opacity="0.4"/><circle cx="346" cy="194.0" r="12.0" fill="url(#sph)"/><circle cx="286" cy="202.0" r="9.8" fill="#222a32"/><circle cx="226" cy="202.0" r="9.8" fill="#222a32"/><circle cx="166" cy="202.0" r="9.8" fill="#222a32"/><ellipse cx="376" cy="237.8" rx="10.8" ry="4.8" fill="#000" fill-opacity="0.4"/><circle cx="376" cy="212.0" r="12.7" fill="url(#sph)"/><circle cx="316" cy="220.0" r="9.8" fill="#222a32"/><circle cx="256" cy="220.0" r="9.8" fill="#222a32"/><circle cx="196" cy="220.0" r="9.8" fill="#222a32"/><circle cx="136" cy="220.0" r="9.8" fill="#222a32"/><ellipse cx="406" cy="256.8" rx="11.4" ry="5.1" fill="#000" fill-opacity="0.4"/><circle cx="406" cy="230.0" r="13.4" fill="url(#sph)"/><ellipse cx="346" cy="256.8" rx="11.4" ry="5.1" fill="#000" fill-opacity="0.4"/><circle cx="346" cy="230.0" r="13.4" fill="url(#sph)"/><ellipse cx="286" cy="256.8" rx="11.4" ry="5.1" fill="#000" fill-opacity="0.4"/><circle cx="286" cy="230.0" r="13.4" fill="url(#sph)"/><ellipse cx="226" cy="256.8" rx="11.4" ry="5.1" fill="#000" fill-opacity="0.4"/><circle cx="226" cy="230.0" r="13.4" fill="url(#sph)"/><ellipse cx="166" cy="256.8" rx="11.4" ry="5.1" fill="#000" fill-opacity="0.4"/><circle cx="166" cy="230.0" r="13.4" fill="url(#sph)"/><ellipse cx="106" cy="256.8" rx="11.4" ry="5.1" fill="#000" fill-opacity="0.4"/><circle cx="106" cy="230.0" r="13.4" fill="url(#sph)"/><ellipse cx="436" cy="275.8" rx="12.0" ry="5.4" fill="#000" fill-opacity="0.4"/><circle cx="436" cy="248.0" r="14.1" fill="url(#sph)"/><ellipse cx="376" cy="275.8" rx="12.0" ry="5.4" fill="#000" fill-opacity="0.4"/><circle cx="376" cy="248.0" r="14.1" fill="url(#sph)"/><ellipse cx="316" cy="275.8" rx="12.0" ry="5.4" fill="#000" fill-opacity="0.4"/><circle cx="316" cy="248.0" r="14.1" fill="url(#sph)"/><ellipse cx="256" cy="275.8" rx="12.0" ry="5.4" fill="#000" fill-opacity="0.4"/><circle cx="256" cy="248.0" r="14.1" fill="url(#sph)"/><ellipse cx="196" cy="275.8" rx="12.0" ry="5.4" fill="#000" fill-opacity="0.4"/><circle cx="196" cy="248.0" r="14.1" fill="url(#sph)"/><ellipse cx="136" cy="275.8" rx="12.0" ry="5.4" fill="#000" fill-opacity="0.4"/><circle cx="136" cy="248.0" r="14.1" fill="url(#sph)"/><ellipse cx="76" cy="275.8" rx="12.0" ry="5.4" fill="#000" fill-opacity="0.4"/><circle cx="76" cy="248.0" r="14.1" fill="url(#sph)"/><ellipse cx="406" cy="294.8" rx="12.6" ry="5.6" fill="#000" fill-opacity="0.4"/><circle cx="406" cy="266.0" r="14.9" fill="url(#sph)"/><ellipse cx="346" cy="294.8" rx="12.6" ry="5.6" fill="#000" fill-opacity="0.4"/><circle cx="346" cy="266.0" r="14.9" fill="url(#sph)"/><ellipse cx="286" cy="294.8" rx="12.6" ry="5.6" fill="#000" fill-opacity="0.4"/><circle cx="286" cy="266.0" r="14.9" fill="url(#sph)"/><ellipse cx="226" cy="294.8" rx="12.6" ry="5.6" fill="#000" fill-opacity="0.4"/><circle cx="226" cy="266.0" r="14.9" fill="url(#sph)"/><ellipse cx="166" cy="294.8" rx="12.6" ry="5.6" fill="#000" fill-opacity="0.4"/><circle cx="166" cy="266.0" r="14.9" fill="url(#sph)"/><ellipse cx="106" cy="294.8" rx="12.6" ry="5.6" fill="#000" fill-opacity="0.4"/><circle cx="106" cy="266.0" r="14.9" fill="url(#sph)"/><circle cx="376" cy="292.0" r="9.8" fill="#222a32"/><circle cx="316" cy="292.0" r="9.8" fill="#222a32"/><circle cx="256" cy="292.0" r="9.8" fill="#222a32"/><circle cx="196" cy="292.0" r="9.8" fill="#222a32"/><ellipse cx="136" cy="313.8" rx="13.2" ry="5.9" fill="#000" fill-opacity="0.4"/><circle cx="136" cy="284.0" r="15.6" fill="url(#sph)"/><circle cx="346" cy="310.0" r="9.8" fill="#222a32"/><circle cx="286" cy="310.0" r="9.8" fill="#222a32"/><circle cx="226" cy="310.0" r="9.8" fill="#222a32"/><ellipse cx="166" cy="332.8" rx="13.9" ry="6.2" fill="#000" fill-opacity="0.4"/><circle cx="166" cy="302.0" r="16.3" fill="url(#sph)"/><circle cx="316" cy="328.0" r="9.8" fill="#222a32"/><circle cx="256" cy="328.0" r="9.8" fill="#222a32"/><ellipse cx="196" cy="351.8" rx="14.5" ry="6.5" fill="#000" fill-opacity="0.4"/><circle cx="196" cy="320.0" r="17.0" fill="url(#sph)"/><circle cx="286" cy="346.0" r="9.8" fill="#222a32"/><ellipse cx="226" cy="370.9" rx="15.1" ry="6.7" fill="#000" fill-opacity="0.4"/><circle cx="226" cy="338.0" r="17.8" fill="url(#sph)"/><ellipse cx="256" cy="389.9" rx="15.7" ry="7.0" fill="#000" fill-opacity="0.4"/><circle cx="256" cy="356.0" r="18.5" fill="url(#sph)"/></svg>