<svg xmlns="http://www.w3.org/2000/svg" viewBox="0 0 512 512" role="img" aria-label="ZyXzL game tracker logo">
  <rect width="512" height="512" rx="96" fill="#0D1117"/>
  <g transform="translate(52,52) scale(17)" fill="none" stroke="#F0F3F6"
     stroke-width="1.4"
     stroke-linecap="round" stroke-linejoin="round">
    <!-- gamepad body -->
    <path d="M17.32 5H6.68a4 4 0 0 0-3.978 3.59c-.006.052-.01.101-.017.152C2.604 9.416 2 14.456 2 16a3 3 0 0 0 3 3c1 0 1.5-.5 2-1l1.414-1.414A2 2 0 0 1 9.828 16h4.344a2 2 0 0 1 1.414.586L17 18c.5.5 1 1 2 1a3 3 0 0 0 3-3c0-1.544-.604-6.584-.685-7.258-.007-.05-.011-.1-.017-.152A4 4 0 0 0 17.32 5z"/>
    <!-- left d-pad -->
    <line x1="6" y1="11" x2="10" y2="11"/>
    <line x1="8" y1="9" x2="8" y2="13"/>
    <!-- right: checkmark = tracker -->
    <polyline points="14.1,11.4 15.5,12.8 18.2,9.2"/>
  </g>
</svg>
